<mxfile host="app.diagrams.net" modified="2020-12-11T11:55:11.746Z" agent="5.0 (Windows)" etag="i_M8qBIZnKOsD6BwcQSO" version="14.0.1" type="github">
  <diagram id="FKgr-eZSPJsd0WNoqQpf" name="Page-1">
    <mxGraphModel dx="1422" dy="763" grid="1" gridSize="10" guides="1" tooltips="1" connect="1" arrows="1" fold="1" page="1" pageScale="1" pageWidth="827" pageHeight="1169" math="0" shadow="0">
      <root>
        <mxCell id="0" />
        <mxCell id="1" parent="0" />
        <mxCell id="cY0io1cON-76Ivuk66mV-1" value="&lt;font color=&quot;#FFFFFF&quot;&gt;Stage&amp;amp;Work&lt;/font&gt;" style="shape=umlFrame;whiteSpace=wrap;html=1;fillColor=#050505;width=80;height=38;" parent="1" vertex="1">
          <mxGeometry x="100" y="2.5" width="600" height="635" as="geometry" />
        </mxCell>
        <mxCell id="cY0io1cON-76Ivuk66mV-2" style="rounded=0;orthogonalLoop=1;jettySize=auto;html=1;" parent="1" source="cY0io1cON-76Ivuk66mV-6" target="cY0io1cON-76Ivuk66mV-19" edge="1">
          <mxGeometry relative="1" as="geometry" />
        </mxCell>
        <mxCell id="cY0io1cON-76Ivuk66mV-3" style="edgeStyle=none;rounded=0;orthogonalLoop=1;jettySize=auto;html=1;" parent="1" source="cY0io1cON-76Ivuk66mV-6" target="cY0io1cON-76Ivuk66mV-21" edge="1">
          <mxGeometry relative="1" as="geometry" />
        </mxCell>
        <mxCell id="cY0io1cON-76Ivuk66mV-4" style="edgeStyle=none;rounded=0;orthogonalLoop=1;jettySize=auto;html=1;" parent="1" source="cY0io1cON-76Ivuk66mV-6" target="cY0io1cON-76Ivuk66mV-25" edge="1">
          <mxGeometry relative="1" as="geometry" />
        </mxCell>
        <mxCell id="cY0io1cON-76Ivuk66mV-5" style="edgeStyle=none;rounded=0;orthogonalLoop=1;jettySize=auto;html=1;" parent="1" source="cY0io1cON-76Ivuk66mV-6" target="cY0io1cON-76Ivuk66mV-29" edge="1">
          <mxGeometry relative="1" as="geometry" />
        </mxCell>
        <mxCell id="cY0io1cON-76Ivuk66mV-6" value="STUDENT" style="shape=umlActor;verticalLabelPosition=bottom;verticalAlign=top;html=1;" parent="1" vertex="1">
          <mxGeometry x="20" y="280" width="30" height="60" as="geometry" />
        </mxCell>
        <mxCell id="cY0io1cON-76Ivuk66mV-7" style="edgeStyle=none;rounded=0;orthogonalLoop=1;jettySize=auto;html=1;" parent="1" source="cY0io1cON-76Ivuk66mV-11" target="cY0io1cON-76Ivuk66mV-19" edge="1">
          <mxGeometry relative="1" as="geometry" />
        </mxCell>
        <mxCell id="cY0io1cON-76Ivuk66mV-8" style="edgeStyle=none;rounded=0;orthogonalLoop=1;jettySize=auto;html=1;" parent="1" source="cY0io1cON-76Ivuk66mV-11" target="cY0io1cON-76Ivuk66mV-23" edge="1">
          <mxGeometry relative="1" as="geometry" />
        </mxCell>
        <mxCell id="cY0io1cON-76Ivuk66mV-9" style="edgeStyle=none;rounded=0;orthogonalLoop=1;jettySize=auto;html=1;" parent="1" source="cY0io1cON-76Ivuk66mV-11" target="cY0io1cON-76Ivuk66mV-27" edge="1">
          <mxGeometry relative="1" as="geometry" />
        </mxCell>
        <mxCell id="cY0io1cON-76Ivuk66mV-10" style="edgeStyle=none;rounded=0;orthogonalLoop=1;jettySize=auto;html=1;" parent="1" source="cY0io1cON-76Ivuk66mV-11" target="cY0io1cON-76Ivuk66mV-29" edge="1">
          <mxGeometry relative="1" as="geometry" />
        </mxCell>
        <mxCell id="cY0io1cON-76Ivuk66mV-11" value="UNIVERSITY" style="shape=umlActor;verticalLabelPosition=bottom;verticalAlign=top;html=1;" parent="1" vertex="1">
          <mxGeometry x="20" y="60" width="30" height="60" as="geometry" />
        </mxCell>
        <mxCell id="cY0io1cON-76Ivuk66mV-12" style="edgeStyle=none;rounded=0;orthogonalLoop=1;jettySize=auto;html=1;" parent="1" source="cY0io1cON-76Ivuk66mV-16" target="cY0io1cON-76Ivuk66mV-19" edge="1">
          <mxGeometry relative="1" as="geometry" />
        </mxCell>
        <mxCell id="cY0io1cON-76Ivuk66mV-13" style="edgeStyle=none;rounded=0;orthogonalLoop=1;jettySize=auto;html=1;" parent="1" source="cY0io1cON-76Ivuk66mV-16" target="cY0io1cON-76Ivuk66mV-31" edge="1">
          <mxGeometry relative="1" as="geometry">
            <mxPoint x="230" y="500" as="targetPoint" />
          </mxGeometry>
        </mxCell>
        <mxCell id="cY0io1cON-76Ivuk66mV-14" style="edgeStyle=none;rounded=0;orthogonalLoop=1;jettySize=auto;html=1;" parent="1" source="cY0io1cON-76Ivuk66mV-16" target="cY0io1cON-76Ivuk66mV-21" edge="1">
          <mxGeometry relative="1" as="geometry" />
        </mxCell>
        <mxCell id="cY0io1cON-76Ivuk66mV-15" style="edgeStyle=none;rounded=0;orthogonalLoop=1;jettySize=auto;html=1;" parent="1" source="cY0io1cON-76Ivuk66mV-16" target="cY0io1cON-76Ivuk66mV-29" edge="1">
          <mxGeometry relative="1" as="geometry" />
        </mxCell>
        <mxCell id="cY0io1cON-76Ivuk66mV-16" value="COMPANY" style="shape=umlActor;verticalLabelPosition=bottom;verticalAlign=top;html=1;" parent="1" vertex="1">
          <mxGeometry x="20" y="480" width="30" height="60" as="geometry" />
        </mxCell>
        <mxCell id="cY0io1cON-76Ivuk66mV-17" value="&amp;lt;&amp;lt; actor &amp;gt;&amp;gt;&lt;br&gt;DATABASE" style="rounded=1;arcSize=10;whiteSpace=wrap;html=1;align=center;strokeColor=#000000;fillColor=#050505;fontColor=#FFFFFF;" parent="1" vertex="1">
          <mxGeometry x="727" y="300" width="100" height="40" as="geometry" />
        </mxCell>
        <mxCell id="cY0io1cON-76Ivuk66mV-18" style="edgeStyle=none;rounded=0;orthogonalLoop=1;jettySize=auto;html=1;" parent="1" source="cY0io1cON-76Ivuk66mV-19" target="cY0io1cON-76Ivuk66mV-17" edge="1">
          <mxGeometry relative="1" as="geometry">
            <mxPoint x="437.4962894973114" y="256.249511775962" as="sourcePoint" />
          </mxGeometry>
        </mxCell>
        <mxCell id="cY0io1cON-76Ivuk66mV-19" value="LOGIN" style="ellipse;whiteSpace=wrap;html=1;align=center;fillColor=#FFFFFF;" parent="1" vertex="1">
          <mxGeometry x="350" y="210" width="100" height="40" as="geometry" />
        </mxCell>
        <mxCell id="cY0io1cON-76Ivuk66mV-20" style="edgeStyle=none;rounded=0;orthogonalLoop=1;jettySize=auto;html=1;" parent="1" source="cY0io1cON-76Ivuk66mV-21" target="cY0io1cON-76Ivuk66mV-17" edge="1">
          <mxGeometry relative="1" as="geometry" />
        </mxCell>
        <mxCell id="cY0io1cON-76Ivuk66mV-21" value="ISCRIVI A EVENTO" style="ellipse;whiteSpace=wrap;html=1;align=center;fillColor=#FFFFFF;" parent="1" vertex="1">
          <mxGeometry x="350" y="450" width="100" height="40" as="geometry" />
        </mxCell>
        <mxCell id="cY0io1cON-76Ivuk66mV-22" style="edgeStyle=none;rounded=0;orthogonalLoop=1;jettySize=auto;html=1;" parent="1" source="cY0io1cON-76Ivuk66mV-23" target="cY0io1cON-76Ivuk66mV-17" edge="1">
          <mxGeometry relative="1" as="geometry" />
        </mxCell>
        <mxCell id="cY0io1cON-76Ivuk66mV-23" value="CONVALIDA/INVALIDA OFFERTA" style="ellipse;whiteSpace=wrap;html=1;align=center;fillColor=#FFFFFF;" parent="1" vertex="1">
          <mxGeometry x="321.25" y="120" width="157.5" height="70" as="geometry" />
        </mxCell>
        <mxCell id="cY0io1cON-76Ivuk66mV-24" style="edgeStyle=none;rounded=0;orthogonalLoop=1;jettySize=auto;html=1;" parent="1" source="cY0io1cON-76Ivuk66mV-25" target="cY0io1cON-76Ivuk66mV-17" edge="1">
          <mxGeometry relative="1" as="geometry" />
        </mxCell>
        <mxCell id="cY0io1cON-76Ivuk66mV-25" value="CANDIDA A OFFERTA" style="ellipse;whiteSpace=wrap;html=1;align=center;fillColor=#FFFFFF;" parent="1" vertex="1">
          <mxGeometry x="350" y="370" width="100" height="40" as="geometry" />
        </mxCell>
        <mxCell id="cY0io1cON-76Ivuk66mV-26" style="edgeStyle=none;rounded=0;orthogonalLoop=1;jettySize=auto;html=1;" parent="1" source="cY0io1cON-76Ivuk66mV-27" target="cY0io1cON-76Ivuk66mV-17" edge="1">
          <mxGeometry relative="1" as="geometry" />
        </mxCell>
        <mxCell id="cY0io1cON-76Ivuk66mV-27" value="CREA/MODIFICA/RIMUOVI EVENTO" style="ellipse;whiteSpace=wrap;html=1;align=center;fillColor=#FFFFFF;" parent="1" vertex="1">
          <mxGeometry x="310" y="40" width="180" height="60" as="geometry" />
        </mxCell>
        <mxCell id="cY0io1cON-76Ivuk66mV-28" style="edgeStyle=none;rounded=0;orthogonalLoop=1;jettySize=auto;html=1;" parent="1" source="cY0io1cON-76Ivuk66mV-29" target="cY0io1cON-76Ivuk66mV-17" edge="1">
          <mxGeometry relative="1" as="geometry" />
        </mxCell>
        <mxCell id="cY0io1cON-76Ivuk66mV-29" value="CERCA EVENTO/OFFERTA" style="ellipse;whiteSpace=wrap;html=1;align=center;fillColor=#FFFFFF;" parent="1" vertex="1">
          <mxGeometry x="335" y="280" width="130" height="60" as="geometry" />
        </mxCell>
        <mxCell id="cY0io1cON-76Ivuk66mV-30" style="edgeStyle=none;rounded=0;orthogonalLoop=1;jettySize=auto;html=1;" parent="1" source="cY0io1cON-76Ivuk66mV-31" target="cY0io1cON-76Ivuk66mV-17" edge="1">
          <mxGeometry relative="1" as="geometry" />
        </mxCell>
        <mxCell id="cY0io1cON-76Ivuk66mV-31" value="CREA/MODIFICA/RIMUOVI OFFERTA" style="ellipse;whiteSpace=wrap;html=1;align=center;fillColor=#FFFFFF;" parent="1" vertex="1">
          <mxGeometry x="310" y="540" width="180" height="60" as="geometry" />
        </mxCell>
      </root>
    </mxGraphModel>
  </diagram>
</mxfile>
